<svg width="168" height="25" viewBox="0 0 168 25" fill="none" xmlns="http://www.w3.org/2000/svg">
<path d="M21.0521 19.6249V24.5039C20.5605 24.6561 20.0475 24.7278 19.5329 24.7163C17.3052 24.7163 15.431 24.1866 13.9104 23.0895C12.3899 22.0288 10.9406 20.0148 9.63103 17.0436L8.88892 15.523H5.56546V24.5752H0.296555V0H11.3291C13.9845 0 16.1382 0.707179 17.765 2.0866C19.3918 3.46602 20.2038 5.37512 20.2038 7.8167C20.2038 11.5301 18.0822 14.0402 14.4052 14.7837C16.4205 18.6368 18.0822 19.7339 20.1688 19.7339C20.4669 19.7387 20.7642 19.702 21.0521 19.6249ZM5.56546 4.56172V10.9906H10.7631C13.3794 10.9906 14.6875 9.92985 14.6875 7.77617C14.6875 5.62249 13.3444 4.56172 10.6918 4.56172H5.56546Z" fill="#3B58F5"/>
<path d="M39.9697 20.2259C38.3779 23.4082 35.5855 25.0001 31.6247 25.0001C28.8296 25.0001 26.5333 24.1867 24.7654 22.5236C22.9611 20.8618 22.0778 18.6704 22.0778 15.8766C22.0778 13.1891 22.9611 10.9963 24.7332 9.26466C26.4663 7.5666 28.694 6.71826 31.3452 6.71826C33.9965 6.71826 36.0747 7.53166 37.6008 9.15845C39.127 10.7852 39.8635 12.9417 39.8635 15.6293C39.8774 16.0894 39.8658 16.5499 39.8286 17.0087H27.3817C27.629 19.5243 29.2558 21.0393 31.696 21.0393C33.5338 21.0393 34.9482 20.0848 35.9391 18.2106L39.9697 20.2259ZM27.4166 14.0766H34.6296C34.4535 11.7007 33.2865 10.5043 31.1649 10.5043C29.1496 10.5015 27.7353 11.846 27.4166 14.0738V14.0766Z" fill="#3B58F5"/>
<path d="M46.4393 24.5749L39.9335 7.14282H45.3436L49.3393 19.1621L53.2637 7.14282H58.6738L52.203 24.5749H46.4393Z" fill="#3B58F5"/>
<path d="M76.388 20.2259C74.7976 23.4082 72.0038 25.0001 68.0431 25.0001C65.2479 25.0001 62.9516 24.1867 61.1837 22.5236C59.3808 20.8618 58.4961 18.6704 58.4961 15.8766C58.4961 13.1891 59.3808 10.9963 61.1516 9.26466C62.8832 7.5666 65.1109 6.71826 67.7635 6.71826C70.4162 6.71826 72.5014 7.53166 74.0219 9.15845C75.5425 10.7852 76.2846 12.9417 76.2846 15.6293C76.2985 16.0894 76.2869 16.5499 76.2497 17.0087H63.8C64.0474 19.5243 65.6741 21.0393 68.1143 21.0393C69.9536 21.0393 71.3665 20.0848 72.3574 18.2106L76.388 20.2259ZM63.8349 14.0766H71.0493C70.8718 11.7007 69.7048 10.5043 67.5832 10.5043C65.5637 10.5015 64.1536 11.846 63.8349 14.0738V14.0766Z" fill="#3B58F5"/>
<path d="M78.6144 24.5752V7.14313H83.4235V9.61825C84.6617 7.67281 86.4297 6.71826 88.7343 6.71826C93.0137 6.71826 95.4176 9.26466 95.4176 13.6489V24.5752H90.2842V14.4623C90.2842 12.0864 89.2933 10.8915 87.278 10.8915C85.1914 10.8915 83.7072 12.3408 83.7072 14.7809V24.5752H78.6144Z" fill="#3B58F5"/>
<path d="M98.0269 18.0286V7.14282H103.159V17.3298C103.159 19.6591 104.113 20.8261 106.022 20.8308C108.038 20.8308 109.487 19.4514 109.487 17.0475V7.14282H114.615V24.5749H109.767V22.0998C108.528 24.0382 106.793 24.9998 104.569 24.9998C100.364 24.9998 98.0269 22.4534 98.0269 18.0286Z" fill="#3B58F5"/>
<path d="M134.553 20.2259C132.962 23.4082 130.169 25.0001 126.208 25.0001C123.413 25.0001 121.116 24.1867 119.349 22.5236C117.546 20.8618 116.661 18.6704 116.661 15.8766C116.661 13.1891 117.546 10.9963 119.316 9.26466C121.048 7.5666 123.273 6.71826 125.926 6.71826C128.578 6.71826 130.663 7.53166 132.184 9.15845C133.705 10.7852 134.447 12.9417 134.447 15.6293C134.461 16.0894 134.449 16.5499 134.412 17.0087H121.965C122.212 19.5243 123.839 21.0393 126.279 21.0393C128.117 21.0393 129.533 20.0848 130.522 18.2106L134.553 20.2259ZM122.001 14.0766H129.214C129.037 11.7007 127.87 10.5043 125.748 10.5043C123.733 10.5015 122.318 11.846 122.001 14.0738V14.0766Z" fill="#3B58F5"/>
<rect x="143.182" y="0.0900879" width="3.50303" height="3.50303" rx="1.75152" fill="#003A7F"/>
<rect x="144.934" y="21.1082" width="3.50303" height="3.50303" rx="1.75152" fill="#3B58F5"/>
<rect x="160.697" y="0.0900879" width="3.50303" height="3.50303" rx="1.75152" fill="#66A3FF"/>
<rect x="153.691" y="14.1021" width="3.50303" height="3.50303" rx="1.75152" fill="#FF4545"/>
<rect x="158.946" y="7.09619" width="3.50303" height="3.50303" rx="1.75152" fill="#AC92F2"/>
<rect x="164.2" y="7.09619" width="3.50303" height="3.50303" rx="1.75152" fill="#33CC99"/>
<rect x="148.437" y="0.0900879" width="10.5091" height="3.50303" rx="1.75152" fill="#0066FF"/>
<rect x="150.188" y="21.1082" width="10.5091" height="3.50303" rx="1.75152" fill="#899BF9"/>
<rect x="141.431" y="14.1021" width="10.5091" height="3.50303" rx="1.75152" fill="#FF9933"/>
<rect x="146.685" y="7.09619" width="10.5091" height="3.50303" rx="1.75152" fill="#7549EA"/>
</svg>
